<svg width="400" height="400" viewBox="0 0 400 400" fill="none" xmlns="http://www.w3.org/2000/svg">
<path fill-rule="evenodd" clip-rule="evenodd" d="M140.56 82.0694C134.844 82.0694 129.562 85.119 126.704 90.0694L67.568 192.496C64.7099 197.446 64.7099 203.546 67.568 208.496L126.704 310.922C129.562 315.873 134.844 318.922 140.56 318.922L258.832 318.922C264.549 318.922 269.831 315.873 272.689 310.922L331.825 208.496C334.683 203.546 334.683 197.446 331.825 192.496L272.689 90.0694C269.831 85.119 264.549 82.0694 258.832 82.0694L140.56 82.0694ZM179.609 142.967C172.464 142.967 165.862 146.779 162.289 152.967L140.333 190.996C136.76 197.184 123.131 304.734 126.704 310.922L162.289 249.025C165.862 255.213 172.464 259.025 179.609 259.025L223.522 259.025C230.667 259.025 237.269 255.213 240.842 249.025L262.798 210.996C266.371 204.808 276.261 96.2574 272.689 90.0694L240.842 152.967C237.269 146.779 230.667 142.967 223.522 142.967L179.609 142.967Z" fill="#FF556E"/>
</svg>
