<svg width="300" height="300" viewBox="0 0 300 300" fill="none" xmlns="http://www.w3.org/2000/svg">
<g clip-path="url(#clip0_708_15)">
<path fill-rule="evenodd" clip-rule="evenodd" d="M85.0085 18.9788C78.7003 18.9788 72.8714 22.3442 69.7173 27.8072L4.45801 140.84C1.30394 146.303 1.30394 153.033 4.45801 158.496L69.7173 271.529C72.8714 276.992 78.7003 280.357 85.0085 280.357L215.527 280.357C221.835 280.357 227.664 276.992 230.818 271.529L296.077 158.496C299.232 153.033 299.232 146.303 296.077 140.84L230.818 27.8072C227.664 22.3442 221.835 18.9789 215.527 18.9788L85.0085 18.9788ZM128.101 86.1825C120.216 86.1825 112.93 90.3892 108.987 97.218L84.7575 139.185C80.8149 146.013 65.7747 264.7 69.7173 271.529L108.987 203.222C112.93 210.051 120.216 214.258 128.101 214.258L176.56 214.258C184.445 214.258 191.731 210.051 195.674 203.222L219.903 161.256C223.846 154.427 234.761 34.636 230.818 27.8072L195.674 97.218C191.731 90.3892 184.445 86.1825 176.56 86.1825L128.101 86.1825Z" fill="#FF556E"/>
</g>
<defs>
<clipPath id="clip0_708_15">
<rect width="300" height="300" fill="white"/>
</clipPath>
</defs>
</svg>
