<svg width="300" height="300" viewBox="0 0 300 300" fill="none" xmlns="http://www.w3.org/2000/svg">
<g clip-path="url(#clip0_713_14)">
<path fill-rule="evenodd" clip-rule="evenodd" d="M72.5184 21.4635C68.638 24.5331 68.5211 30.0456 70.3961 34.6243L99.0117 104.504L106.754 91.0679C109.613 86.1072 114.905 83.052 120.63 83.0567L178.33 83.1034C184.042 83.1081 189.318 86.157 192.174 91.1034L221.09 141.188C223.946 146.135 223.949 152.228 221.097 157.177L192.287 207.17C189.429 212.131 184.137 215.186 178.411 215.182L120.711 215.135C115 215.13 109.724 212.081 106.868 207.135L77.9513 157.05C75.0955 152.104 75.093 146.01 77.9448 141.061L86.2815 126.594L10.3553 138.35C5.56182 139.092 0.982457 141.927 0.242906 146.721C-0.466185 151.318 0.377207 156.099 2.77309 160.256L67.4238 272.414C71.1212 278.828 77.9544 282.779 85.3493 282.779H214.651C222.046 282.779 228.879 278.828 232.576 272.414L297.227 160.256C300.924 153.841 300.924 145.938 297.227 139.524L232.576 27.3659C228.879 20.9515 222.046 17 214.651 17L85.3493 17C80.6176 17 76.1158 18.6178 72.5184 21.4635Z" fill="#FF556E"/>
</g>
<defs>
<clipPath id="clip0_713_14">
<rect width="300" height="300" fill="white"/>
</clipPath>
</defs>
</svg>
