<svg width="400" height="400" viewBox="0 0 400 400" fill="none" xmlns="http://www.w3.org/2000/svg">
<path d="M129.271 136.298H79.3625C74.9167 136.298 72.5325 141.527 75.4476 144.884L120.18 196.391C122.017 198.507 121.842 201.698 119.784 203.6L17.9716 297.676C14.5058 300.878 16.7717 306.669 21.4906 306.669H73.677C75.0089 306.669 76.2898 306.157 77.254 305.238L183.901 203.615C185.912 201.699 186.056 198.538 184.227 196.448L133.174 138.07C132.19 136.944 130.767 136.298 129.271 136.298Z" fill="#FF556E"/>
<path d="M270.91 263.706H320.819C325.265 263.706 327.649 258.478 324.734 255.121L280.001 203.613C278.164 201.498 278.34 198.306 280.397 196.405L382.21 102.329C385.676 99.1265 383.41 93.3354 378.691 93.3354H326.504C325.172 93.3354 323.892 93.848 322.927 94.7668L216.28 196.39C214.269 198.306 214.125 201.466 215.954 203.557L267.007 261.934C267.992 263.06 269.414 263.706 270.91 263.706Z" fill="#FF556E"/>
</svg>