<svg width="300" height="300" viewBox="0 0 300 300" fill="none" xmlns="http://www.w3.org/2000/svg">
<path d="M92.2026 98.0417H51.4709C47.8426 98.0417 45.8968 102.306 48.2759 105.044L84.7831 147.055C86.2823 148.78 86.1392 151.383 84.4599 152.934L1.36839 229.665C-1.46015 232.277 0.389115 237 4.24029 237H46.8309C47.9179 237 48.9632 236.582 49.7501 235.833L136.787 152.946C138.429 151.384 138.546 148.806 137.054 147.101L95.3881 99.4868C94.5845 98.5685 93.4233 98.0417 92.2026 98.0417Z" fill="#FF556E"/>
<path d="M207.797 201.958H248.529C252.157 201.958 254.103 197.694 251.724 194.956L215.217 152.945C213.718 151.22 213.861 148.617 215.54 147.066L298.632 70.3353C301.46 67.7233 299.611 63 295.76 63H253.169C252.082 63 251.037 63.418 250.25 64.1674L163.213 147.054C161.571 148.616 161.454 151.194 162.946 152.899L204.612 200.513C205.415 201.432 206.577 201.958 207.797 201.958Z" fill="#FF556E"/>
</svg>
